# Blender 3.5.1
# www.blender.org
mtllib goalpost.mtl
o Cube
v 3.266846 3.119746 -4.611231
v 3.629829 -3.119746 -5.187635
v 3.266846 3.119746 4.611231
v 3.629829 -3.119746 5.187635
v -3.266846 3.119746 -4.611231
v -3.629829 -3.466384 -5.764040
v -3.266846 3.119746 4.611231
v -3.629829 -3.466384 5.764040
v 3.266846 3.466384 -5.187635
v 3.629829 -3.466384 -5.764040
v 3.266846 3.466384 5.187635
v 3.629829 -3.466384 5.764040
v -3.629829 -3.119746 -5.187635
v -3.629829 -3.119746 5.187635
v -3.266846 3.466384 5.187635
v -3.266846 3.466384 -5.187635
v 3.629829 3.466384 5.764040
v -3.629829 3.466384 5.764040
v 3.629829 3.466384 -5.764040
v -3.629829 3.466384 -5.764040
v 3.629829 3.119746 -5.187635
v 3.629829 3.119746 5.187635
v -3.629829 3.119746 5.187635
v -3.629829 3.119746 -5.187635
v -3.629829 -3.119746 -5.187635
v -3.629829 -3.119746 5.187635
v -3.629829 -3.466384 -5.764040
v -3.629829 -3.466384 5.764040
v -3.329829 -3.119746 -5.187635
v -3.329829 -3.119746 5.187635
v -3.329829 -3.466384 -5.764040
v -3.329829 -3.466384 5.764040
v -2.433923 -2.771041 4.068974
v -2.433923 2.771041 4.068974
v -2.433923 -2.771041 -4.068974
v -2.433923 2.771041 -4.068974
v 2.796906 -2.771041 4.645378
v 2.796906 2.424402 4.068974
v 2.796906 -2.771041 -4.068974
v 2.796906 2.424402 -4.068974
v -2.796906 -2.771041 -4.645378
v -2.796906 -2.771041 4.645378
v 2.796906 -2.771041 -4.645378
v 2.433923 2.771041 -4.068974
v 2.433923 2.771041 4.068974
v 2.796906 -2.771041 4.068974
v -2.796906 2.771041 4.645378
v -2.796906 2.771041 -4.645378
v 2.796906 2.771041 -4.645378
v 2.796906 2.771041 4.645378
vn -1.0000 -0.0000 -0.0000
vn -0.0000 -0.0000 -1.0000
vn -0.0000 -0.0000 1.0000
vn 1.0000 -0.0000 -0.0000
vn -0.0000 1.0000 -0.0000
vn -0.0000 -1.0000 -0.0000
vt 0.141223 0.734490
vt 0.000000 0.000000
vt 0.858778 0.734490
vt 0.000000 0.000000
vt 0.141223 0.515510
vt 0.000000 0.000000
vt 0.858778 0.515510
vt 0.000000 0.000000
vt 0.375000 0.750000
vt 0.609363 0.734490
vt 0.000000 0.000000
vt 0.375000 0.515510
vt 0.000000 0.000000
vt 0.609363 0.515510
vt 0.000000 0.000000
vt 0.375000 0.250000
vt 0.125000 0.500000
vt 0.375000 0.000000
vt 0.375000 1.000000
vt 0.125000 0.750000
vt 0.375000 0.500000
vt 0.641222 0.515510
vt 0.000000 0.000000
vt 0.641222 0.734490
vt 0.000000 0.000000
vt 0.375000 0.734490
vt 0.000000 0.000000
vt 0.625000 0.000000
vt 0.625000 1.000000
vt 0.875000 0.750000
vt 0.625000 0.250000
vt 0.875000 0.500000
vt 0.625000 0.500000
vt 0.625000 0.750000
s 0
usemtl Material
f 42/18/1 47/28/1 48/31/1 41/16/1
f 41/16/2 48/31/2 49/33/2 43/21/2
f 37/9/3 50/34/3 47/29/3 42/19/3
f 34/3/4 33/1/4 35/5/4 36/7/4
f 44/22/5 36/7/5 34/3/5 45/24/5
f 35/5/6 33/1/6 42/20/6 41/17/6
f 39/12/6 35/5/6 41/17/6 43/21/6
f 40/14/4 39/12/4 43/21/4 49/33/4
f 38/10/4 40/14/4 49/33/4 50/34/4
f 46/26/4 38/10/4 50/34/4 37/9/4
f 33/1/6 46/26/6 37/9/6 42/20/6
f 34/3/5 36/7/5 48/32/5 47/30/5
f 36/7/5 44/22/5 49/33/5 48/32/5
f 44/22/5 45/24/5 50/34/5 49/33/5
f 45/24/5 34/3/5 47/30/5 50/34/5
f 45/25/2 38/11/2 46/27/2 33/2/2 34/4/2
f 35/6/3 39/13/3 40/15/3 44/23/3 36/8/3
o Plane
v 2.768184 2.429613 -4.036754
v -2.650616 2.429613 -4.036754
v 2.768184 2.429613 4.347200
v -2.650616 2.429613 4.347200
vn -0.0000 -1.0000 -0.0000
vt 0.000000 0.000000
vt 1.000000 0.000000
vt 0.000000 1.000000
vt 1.000000 1.000000
s 0
f 51/35/7 53/37/7 54/38/7 52/36/7
